<?xml version="1.0" encoding="utf-8"?>
<!-- Generator: Adobe Illustrator 27.0.0, SVG Export Plug-In . SVG Version: 6.00 Build 0)  -->
<svg version="1.1" id="图层_1" xmlns="http://www.w3.org/2000/svg" xmlns:xlink="http://www.w3.org/1999/xlink" x="0px" y="0px"
	 viewBox="0 0 1024 1024" style="enable-background:new 0 0 1024 1024;" xml:space="preserve">
<style type="text/css">
	.st0{fill:none;stroke:#000000;stroke-width:18;stroke-linecap:round;stroke-linejoin:round;}
	.st1{fill:none;stroke:#000000;stroke-width:17;stroke-miterlimit:10;}
</style>
<g>
	<path id="waves" class="st0" d="M172,794c20,0,50-42,85-48c20,0,35,42,85,48c35,0,50-42,85-42s50,42,85,42s50-42,85-42s50,42,85,42
		s50-42,85-42s50,42,85,42"/>
	<path id="hull" class="st0" d="M240.4,752.2l-22.9-43.8l590-38c-46.4,42.2-106,76.4-166.3,104.4"/>
	<path id="front_sail" class="st0" d="M452.4,300.4c100.4,30.7,240.8,179,288.6,338.4c-26.2-10.3-45.8-20.8-82.6-11.4
		C622.8,497.9,559.1,374.2,452.4,300.4z"/>
	<path id="rear_sail" class="st0" d="M265.7,229.5c128.6,55,305,208.1,337.4,412c-148.3-59.8-261.2-27.9-339.8,20.6
		C383.2,509.7,329.4,336.4,265.7,229.5z"/>
</g>
<path d="M0,0v1024h1024V0H0z M981,981H43V43H981V981z"/>
<path class="st1" d="M780.9,313.4L751.3,343c-3.2,3.2-8.4,3.2-11.6,0l-29.6-29.6h-63.4c-9.1,0-16.5-7.4-16.5-16.5V145.5
	c0-9.1,7.4-16.5,16.5-16.5h197.5c9.1,0,16.5,7.4,16.5,16.5v151.4c0,9.1-7.4,16.5-16.5,16.5H780.9z"/>
<g>
	<path d="M736.6,244.3c-3.2,5.7-7.6,10.2-13.1,13.5c-5.5,3.3-12,5-19.5,5c-8.1,0-15.2-1.8-21.4-5.5c-6.2-3.7-11-8.9-14.5-15.7
		c-3.5-6.8-5.2-14.5-5.2-23.3c0-8.7,1.7-16.3,5.1-22.9c3.4-6.6,8.2-11.7,14.4-15.3c6.2-3.6,13.3-5.4,21.5-5.4c7.5,0,14,1.7,19.5,5
		c5.5,3.3,9.9,7.9,13.1,13.5l-14.4,9.8c-2.3-3.8-5-6.6-8.1-8.5c-3.1-1.9-6.5-2.8-10.1-2.8c-7.1,0-12.6,2.4-16.5,7.1
		c-3.9,4.8-5.8,11.3-5.8,19.5c0,8.5,1.9,15.2,5.8,20.1c3.9,4.9,9.4,7.4,16.4,7.4c7.5,0,13.6-3.8,18.2-11.5L736.6,244.3z"/>
	<path d="M765.2,261.3h-17.5v-85.1h16l36.5,52.2h0.5v-52.2h17.6v85.1h-15.2L765.8,209h-0.7V261.3z"/>
</g>
</svg>
